HIERARCHY
ROOT Hips
{
  OFFSET 5.84602e-005 68.8428 3.50346
  CHANNELS 6 Xposition Yposition Zposition Zrotation Xrotation Yrotation
  JOINT Spine
  {
    OFFSET 0 8.597 -4.6522
    CHANNELS 3 Zrotation Xrotation Yrotation
    JOINT Spine1
    {
      OFFSET 0 7.8454 0.4098
      CHANNELS 3 Zrotation Xrotation Yrotation
      JOINT Spine2
      {
        OFFSET 0 9.7078 -2.1609
        CHANNELS 3 Zrotation Xrotation Yrotation
        JOINT Neck
        {
          OFFSET 0 21.8761 -0.4549
          CHANNELS 3 Zrotation Xrotation Yrotation
          JOINT Head
          {
            OFFSET 0 12.3537 3.3602
            CHANNELS 3 Zrotation Xrotation Yrotation
            End Site
            {
              OFFSET 0.0001 18.9506 0.5657
            }
          }
        }
        JOINT LeftShoulder
        {
          OFFSET 2.2086 21.1115 7.2329
          CHANNELS 3 Zrotation Xrotation Yrotation
          JOINT LeftArm
          {
            OFFSET 13.1193 3.0282 -4.8998
            CHANNELS 3 Zrotation Xrotation Yrotation
            JOINT LeftForeArm
            {
              OFFSET 27.4081 -0.0973053 -0.2375
              CHANNELS 3 Zrotation Xrotation Yrotation
              JOINT LeftHand
              {
                OFFSET 22.8641 0.0662994 -0.1369
                CHANNELS 3 Zrotation Xrotation Yrotation
                JOINT LeftHandIndex1
                {
                  OFFSET 8.8614 0.775009 2.4612
                  CHANNELS 3 Zrotation Xrotation Yrotation
                  JOINT LeftHandIndex2
                  {
                    OFFSET 3.3146 -0.808304 0.5841
                    CHANNELS 3 Zrotation Xrotation Yrotation
                    JOINT LeftHandIndex3
                    {
                      OFFSET 2.2628 -0.552002 0.3989
                      CHANNELS 3 Zrotation Xrotation Yrotation
                      End Site
                      {
                        OFFSET 1.6102 -0.4807 0.2612
                      }
                    }
                  }
                }
                JOINT LeftHandMiddle1
                {
                  OFFSET 8.9937 0.895004 0.2143
                  CHANNELS 3 Zrotation Xrotation Yrotation
                  JOINT LeftHandMiddle2
                  {
                    OFFSET 4.0984 0.0113983 -0.0242
                    CHANNELS 3 Zrotation Xrotation Yrotation
                    JOINT LeftHandMiddle3
                    {
                      OFFSET 2.2716 0.00689697 -0.0138001
                      CHANNELS 3 Zrotation Xrotation Yrotation
                      End Site
                      {
                        OFFSET 2.0404 -0.1441 0.0027
                      }
                    }
                  }
                }
                JOINT LeftHandRing1
                {
                  OFFSET 8.5234 0.597198 -2.0164
                  CHANNELS 3 Zrotation Xrotation Yrotation
                  JOINT LeftHandRing2
                  {
                    OFFSET 3.7188 -0.188293 -0.2328
                    CHANNELS 3 Zrotation Xrotation Yrotation
                    JOINT LeftHandRing3
                    {
                      OFFSET 2.1191 -0.106598 -0.1332
                      CHANNELS 3 Zrotation Xrotation Yrotation
                      End Site
                      {
                        OFFSET 1.8737 -0.2304 -0.0886
                      }
                    }
                  }
                }
                JOINT LeftHandPinky1
                {
                  OFFSET 7.9094 -0.601089 -3.4825
                  CHANNELS 3 Zrotation Xrotation Yrotation
                  JOINT LeftHandPinky2
                  {
                    OFFSET 2.2874 -0.477005 -0.6314
                    CHANNELS 3 Zrotation Xrotation Yrotation
                    JOINT LeftHandPinky3
                    {
                      OFFSET 1.6774 -0.349396 -0.4633
                      CHANNELS 3 Zrotation Xrotation Yrotation
                      End Site
                      {
                        OFFSET 1.4888 -0.4091 -0.3416
                      }
                    }
                  }
                }
                JOINT LeftHandThumb1
                {
                  OFFSET 1.833 -1.3875 1.3896
                  CHANNELS 3 Zrotation Xrotation Yrotation
                  JOINT LeftHandThumb2
                  {
                    OFFSET 3.4129 -1.121 2.5732
                    CHANNELS 3 Zrotation Xrotation Yrotation
                    JOINT LeftHandThumb3
                    {
                      OFFSET 2.2474 -0.804199 1.6192
                      CHANNELS 3 Zrotation Xrotation Yrotation
                      End Site
                      {
                        OFFSET 1.6527 -0.5689 1.1317
                      }
                    }
                  }
                }
              }
            }
          }
        }
        JOINT RightShoulder
        {
          OFFSET -2.2086 21.1115 7.2329
          CHANNELS 3 Zrotation Xrotation Yrotation
          JOINT RightArm
          {
            OFFSET -13.1216 3.0287 -4.9007
            CHANNELS 3 Zrotation Xrotation Yrotation
            JOINT RightForeArm
            {
              OFFSET -27.4081 -0.0973053 -0.2375
              CHANNELS 3 Zrotation Xrotation Yrotation
              JOINT RightHand
              {
                OFFSET -22.8641 0.0664063 -0.1369
                CHANNELS 3 Zrotation Xrotation Yrotation
                JOINT RightHandIndex1
                {
                  OFFSET -8.8614 0.774994 2.4612
                  CHANNELS 3 Zrotation Xrotation Yrotation
                  JOINT RightHandIndex2
                  {
                    OFFSET -3.3146 -0.808304 0.5841
                    CHANNELS 3 Zrotation Xrotation Yrotation
                    JOINT RightHandIndex3
                    {
                      OFFSET -2.2628 -0.552002 0.3989
                      CHANNELS 3 Zrotation Xrotation Yrotation
                      End Site
                      {
                        OFFSET -1.6102 -0.4807 0.2612
                      }
                    }
                  }
                }
                JOINT RightHandMiddle1
                {
                  OFFSET -8.9937 0.894989 0.2143
                  CHANNELS 3 Zrotation Xrotation Yrotation
                  JOINT RightHandMiddle2
                  {
                    OFFSET -4.0984 0.0113983 -0.0242
                    CHANNELS 3 Zrotation Xrotation Yrotation
                    JOINT RightHandMiddle3
                    {
                      OFFSET -2.2716 0.00691223 -0.0138001
                      CHANNELS 3 Zrotation Xrotation Yrotation
                      End Site
                      {
                        OFFSET -2.0404 -0.1441 0.0027
                      }
                    }
                  }
                }
                JOINT RightHandRing1
                {
                  OFFSET -8.5234 0.597198 -2.0164
                  CHANNELS 3 Zrotation Xrotation Yrotation
                  JOINT RightHandRing2
                  {
                    OFFSET -3.7188 -0.188309 -0.2328
                    CHANNELS 3 Zrotation Xrotation Yrotation
                    JOINT RightHandRing3
                    {
                      OFFSET -2.1191 -0.106598 -0.1332
                      CHANNELS 3 Zrotation Xrotation Yrotation
                      End Site
                      {
                        OFFSET -1.8737 -0.2304 -0.0886
                      }
                    }
                  }
                }
                JOINT RightHandPinky1
                {
                  OFFSET -7.9094 -0.601105 -3.4825
                  CHANNELS 3 Zrotation Xrotation Yrotation
                  JOINT RightHandPinky2
                  {
                    OFFSET -2.2874 -0.477005 -0.6314
                    CHANNELS 3 Zrotation Xrotation Yrotation
                    JOINT RightHandPinky3
                    {
                      OFFSET -1.6774 -0.349396 -0.4633
                      CHANNELS 3 Zrotation Xrotation Yrotation
                      End Site
                      {
                        OFFSET -1.4888 -0.4091 -0.3416
                      }
                    }
                  }
                }
                JOINT RightHandThumb1
                {
                  OFFSET -1.833 -1.38751 1.3896
                  CHANNELS 3 Zrotation Xrotation Yrotation
                  JOINT RightHandThumb2
                  {
                    OFFSET -3.41299 -1.12099 2.5732
                    CHANNELS 3 Zrotation Xrotation Yrotation
                    JOINT RightHandThumb3
                    {
                      OFFSET -2.24741 -0.804108 1.6192
                      CHANNELS 3 Zrotation Xrotation Yrotation
                      End Site
                      {
                        OFFSET -1.6527 -0.5689 1.1317
                      }
                    }
                  }
                }
              }
            }
          }
        }
      }
    }
  }
  JOINT RightUpLeg
  {
    OFFSET -9.1966 3.8861 -0.7581
    CHANNELS 3 Zrotation Xrotation Yrotation
    JOINT RightLeg
    {
      OFFSET -0.7359 -41.0265 0
      CHANNELS 3 Zrotation Xrotation Yrotation
      JOINT RightFoot
      {
        OFFSET 0 -40.2855 0
        CHANNELS 3 Zrotation Xrotation Yrotation
        JOINT RightToeBase
        {
          OFFSET 0 -5.6122 11.7359
          CHANNELS 3 Zrotation Xrotation Yrotation
          End Site
          {
            OFFSET 0 0 7.8731
          }
        }
      }
    }
  }
  JOINT LeftUpLeg
  {
    OFFSET 9.1965 3.8864 -0.7581
    CHANNELS 3 Zrotation Xrotation Yrotation
    JOINT LeftLeg
    {
      OFFSET 0.7359 -41.0268 0
      CHANNELS 3 Zrotation Xrotation Yrotation
      JOINT LeftFoot
      {
        OFFSET 0 -40.2855 0
        CHANNELS 3 Zrotation Xrotation Yrotation
        JOINT LeftToeBase
        {
          OFFSET 0 -5.6122 11.7359
          CHANNELS 3 Zrotation Xrotation Yrotation
          End Site
          {
            OFFSET 0 0 7.8731
          }
        }
      }
    }
  }
}
MOTION
Frames:	4
Frame Time:	0.0333333
5.84602e-005 68.8428 3.50346 0 0 -0 0 0 -0 0 0 -0 0 0 -0 0 0 -0 0 0 -0 0 0 -0 0 0 -0 0 0 -0 0 0 -0 0 0 -0 0 0 -0 0 0 -0 0 0 -0 -0.0146107 -8.87603e-005 -2.63497e-007 2.99804e-018 -2.42657e-020 -1.42182e-022 0 0 -0 -0.0187562 -0.001176 5.858e-005 5.06224e-018 3.88251e-019 1.21329e-020 0 0 -0 -0.012269 -0.00324817 0.000675346 -1.74678e-018 3.88251e-019 -0 0 0 -0 0 0 -0 0 0 -0 0 0 -0 0 0 -0 0 0 -0 0 0 -0 0 0 -0 0 0 -0 0 0 -0 0 0 -0 0.0149955 -9.10982e-005 2.64101e-007 -9.69331e-018 1.21329e-020 -4.7394e-023 0 0 -0 0.0189956 -0.00119102 -5.96516e-005 -5.41541e-019 0 2.42657e-020 0 0 -0 0.0122698 -0.00324857 -0.000673756 -2.00796e-019 0 -1.94126e-019 0 0 -0 0 0 -0 0 0 -0 3.39842 1.33031 -0.0637918 -5.65207e-008 0.834868 -0.000436188 -3.39935 -2.16518 -0.0642563 -8.89002e-024 -1.18485e-023 -1.48106e-024 -3.39844 1.35642 0.0640283 -3.18788e-007 0.782166 -0.000588827 3.39931 -2.13858 0.0634662 1.1399e-023 0 -0 
-8.01255 36.0914 2.32861 -0 -43.7892 -0 -2.92225 6.38247 -1.59008 -5.71823 12.8361 -2.87556 -5.71824 12.8361 -2.87556 -13.244 -0.342889 3.68653 -0.648707 -0.94306 14.2287 -13.8149 5.22609 -3.18736 -19.258 -36.8001 3.11535 -3.95654 30.1509 -5.59661 37.5011 12.4739 -14.5575 1.98785e-016 1.19271e-015 -3.18055e-015 -9.93923e-016 -7.95139e-016 -3.18055e-015 -5.96354e-016 1.59028e-015 3.18055e-015 1.98785e-016 1.19271e-015 -3.18055e-015 -0.0145867 -8.81811e-005 -2.90792e-007 9.93923e-016 1.59028e-015 -3.18055e-015 1.98785e-016 1.19271e-015 -3.18055e-015 -0.0187772 -0.00117659 5.69766e-005 -7.95139e-016 2.78299e-015 -1.27222e-014 1.98785e-016 1.19271e-015 -3.18055e-015 -0.0122837 -0.00325081 0.000674105 -3.15054e-007 1.75674e-007 -6.26911e-007 1.98785e-016 1.19271e-015 -3.18055e-015 -9.93923e-016 -7.95139e-016 -3.18055e-015 -5.96354e-016 1.59028e-015 3.18055e-015 16.3335 -18.3977 -13.9503 17.758 26.0036 -8.10319 -39.0644 -0.239243 21.756 -1.16525 4.19288 4.28896 -7.45443e-016 -7.95139e-016 -3.97569e-016 3.62352e-007 1.14123e-007 -6.41507e-008 4.98751e-007 3.07375e-007 4.17885e-008 -7.45443e-016 -7.95139e-016 -3.97569e-016 0.0150612 -9.1451e-005 3.64767e-007 8.44835e-016 0 3.97569e-016 -7.45443e-016 -7.95139e-016 -3.97569e-016 0.0189399 -0.00118745 -5.95708e-005 -3.13086e-015 -3.97569e-015 -7.95139e-016 -7.45443e-016 -7.95139e-016 -3.97569e-016 0.0123491 -0.00326869 -0.000679623 1.19271e-015 7.95139e-016 3.97569e-016 -7.45443e-016 -7.95139e-016 -3.97569e-016 3.62352e-007 1.14123e-007 -6.41507e-008 4.98751e-007 3.07375e-007 4.17885e-008 -26.363 -18.6744 -25.4041 -5.9172 54.3654 3.90442 -18.5158 9.42874 31.0833 6.21202e-015 -7.95139e-016 1.59028e-015 -9.5319 -41.0945 6.61284 4.62758 42.574 -4.12794 1.5813 20.9193 -12.7589 1.60437e-007 -5.36444e-008 8.30186e-007 
-15.1874 8.07147 -1.67419 -0 -82.5084 -0 -5.21279 11.7258 -3.67882 -9.95813 23.7241 -6.43987 -9.95813 23.7241 -6.43987 -24.9179 -0.642653 6.94656 -0.845929 -1.63609 26.8181 -25.5543 9.81381 -6.05501 -27.4983 -68.9091 13.1603 0.962277 55.9358 -16.4286 76.0835 21.5191 -28.9554 -3.18055e-015 0 -3.18055e-015 -4.77083e-015 -3.18055e-015 -0 -4.77083e-015 0 -0 -3.18055e-015 0 -3.18055e-015 -0.0146209 -8.81973e-005 -1.46325e-006 -3.18055e-015 0 -0 -3.18055e-015 0 -3.18055e-015 -0.0187498 -0.0011762 5.34818e-005 -4.41391e-031 -7.95139e-015 -3.18055e-015 -3.18055e-015 0 -3.18055e-015 -0.0122491 -0.00324175 0.0006838 -1.59028e-015 1.59028e-015 -3.18055e-015 -3.18055e-015 0 -3.18055e-015 -4.77083e-015 -3.18055e-015 -0 -4.77083e-015 0 -0 22.4076 -31.901 -29.7659 42.2036 47.5527 -20.5644 -73.4672 -0.366334 40.9936 -2.72137 7.84366 8.13628 -1.98785e-015 1.59028e-015 4.77083e-015 1.19271e-015 1.59028e-015 3.18055e-015 -5.96354e-016 1.59028e-015 1.59028e-015 -1.98785e-015 1.59028e-015 4.77083e-015 0.0149871 -9.15433e-005 2.63992e-007 3.97569e-016 0 -0 -1.98785e-015 1.59028e-015 4.77083e-015 0.0189973 -0.00119024 -5.86261e-005 1.59744e-008 2.65208e-007 1.9022e-008 -1.98785e-015 1.59028e-015 4.77083e-015 0.012265 -0.0032472 -0.000675626 2.38542e-015 2.38542e-015 -1.59028e-015 -1.98785e-015 1.59028e-015 4.77083e-015 1.19271e-015 1.59028e-015 3.18055e-015 -5.96354e-016 1.59028e-015 1.59028e-015 -65.4466 -27.1343 -52.92 -144.822 78.0813 139.92 -41.7409 12.4199 57.5604 -1.2424e-016 -3.97569e-016 -0 13.1924 -74.9669 36.9948 32.3432 73.7436 -30.2806 10.7357 40.8841 -28.2795 -2.53507e-006 1.05287e-006 -7.10325e-007 
-17.8355 -2.30535 -3.84757 -180 -83.383 -180 -5.93524 13.57 -4.62399 -11.1935 27.5213 -8.09444 -11.1935 27.5213 -8.09443 -29.1636 -0.750525 8.13466 -0.840447 -1.83232 31.408 -29.7947 11.5012 -7.04544 -14.5785 -79.7051 32.4524 8.41157 64.5755 -25.5567 91.3722 23.9711 -34.7014 6.36111e-015 1.59028e-015 3.18055e-015 2.67571e-007 5.96141e-007 2.07266e-006 8.82781e-032 -1.59028e-015 3.18055e-015 6.36111e-015 1.59028e-015 3.18055e-015 -0.0146208 -9.03171e-005 -3.26442e-006 -1.35739e-007 -2.53783e-007 -1.47691e-006 6.36111e-015 1.59028e-015 3.18055e-015 -0.0187491 -0.00117297 6.55861e-005 3.18055e-015 -1.59028e-015 9.54166e-015 6.36111e-015 1.59028e-015 3.18055e-015 -0.0122702 -0.00325068 0.000673217 9.54166e-015 1.59028e-015 3.18055e-015 6.36111e-015 1.59028e-015 3.18055e-015 2.67571e-007 5.96141e-007 2.07266e-006 8.82781e-032 -1.59028e-015 3.18055e-015 22.3908 -35.5038 -36.8879 55.0768 54.4741 -28.428 -85.9803 -0.380287 48.0035 -3.41215 9.15046 9.56062 8.37621e-007 -1.55131e-007 1.35244e-008 -1.17341e-008 -9.85438e-008 -1.6891e-006 8.37621e-007 -1.55131e-007 1.35243e-008 8.37621e-007 -1.55131e-007 1.35244e-008 0.0149831 -9.12671e-005 3.85743e-009 8.37628e-007 -1.55129e-007 1.3544e-008 8.37621e-007 -1.55131e-007 1.35244e-008 0.0190085 -0.00119188 -6.43954e-005 8.3763e-007 -1.55129e-007 1.35413e-008 8.37621e-007 -1.55131e-007 1.35244e-008 0.0122766 -0.00325017 -0.000677984 8.37628e-007 -1.55126e-007 1.35169e-008 8.37621e-007 -1.55131e-007 1.35244e-008 -1.17341e-008 -9.85438e-008 -1.6891e-006 8.37621e-007 -1.55131e-007 1.35243e-008 -81.7431 -26.9919 -63.7604 -164.758 62.8533 157.558 -51.0979 10.3685 67.0402 1.2424e-015 7.95139e-016 -0 69.8514 -79.5578 95.7042 78.4879 79.6392 -74.9212 18.4592 46.85 -37.5788 -1.90302e-007 -2.76666e-006 2.39667e-007 
